<svg width="30" height="30" viewBox="0 0 30 30" fill="none" xmlns="http://www.w3.org/2000/svg">
<circle cx="15" cy="15" r="15" fill="#F9054E"/>
<path d="M20.5926 9.4421H18.6726L19.5926 7.9061C19.7686 7.6261 19.6726 7.25809 19.3846 7.08209C19.1046 6.91409 18.7366 7.0021 18.5686 7.2901L17.2726 9.4421H9.4086C9.1766 9.4421 8.96859 9.5701 8.87259 9.7781C8.76859 9.9781 8.7926 10.2261 8.9286 10.4021L14.4006 17.7061V21.5861C14.4006 21.6581 14.4166 21.7301 14.4406 21.8021H12.5526C12.2246 21.8021 11.9526 22.0661 11.9526 22.4021C11.9526 22.7301 12.2246 23.0021 12.5526 23.0021H17.4486C17.7766 23.0021 18.0486 22.7301 18.0486 22.4021C18.0486 22.0661 17.7766 21.8021 17.4486 21.8021H15.5606C15.5846 21.7301 15.6006 21.6581 15.6006 21.5861V17.7061L21.0726 10.4021C21.2086 10.2261 21.2326 9.9781 21.1286 9.7781C21.0326 9.5701 20.8246 9.4421 20.5926 9.4421ZM10.6086 10.6421H16.5526L16.1206 11.3701C16.0886 11.4181 16.0726 11.4741 16.0566 11.5301C15.5446 11.6181 15.2086 11.8101 14.9286 11.9781C14.6006 12.1621 14.3686 12.2981 13.8326 12.2981C13.2966 12.2981 13.0646 12.1621 12.7366 11.9781C12.4006 11.7781 11.9686 11.5461 11.2486 11.4981L10.6086 10.6421ZM18.3766 12.0021C18.3606 11.9941 18.3446 11.9861 18.3286 11.9701C18.0886 11.8341 17.7926 11.6741 17.3926 11.5781L17.9526 10.6421H19.3926L18.3766 12.0021Z" fill="white"/>
</svg>
