<svg width="30" height="30" viewBox="0 0 30 30" fill="none" xmlns="http://www.w3.org/2000/svg">
<circle cx="15" cy="15" r="15" fill="#F7C104"/>
<path d="M16.7167 19.5083H13.2833C12.9417 19.5083 12.6583 19.7916 12.6583 20.1333V22.7083C12.6583 23.05 12.9417 23.3333 13.2833 23.3333H16.7167C17.0583 23.3333 17.3417 23.05 17.3417 22.7083V20.1333C17.3417 19.7916 17.0583 19.5083 16.7167 19.5083Z" fill="white"/>
<path d="M12.7167 18.5084C12.75 18.5417 12.775 18.5668 12.8084 18.5834C12.9084 18.6501 13.0334 18.6917 13.1584 18.6917H14.0584C13.9584 18.5667 13.8584 18.4168 13.75 18.2584C13.5917 18.0168 13.425 17.7501 13.2584 17.4417C13.1584 17.2584 13.0584 17.0584 12.9667 16.8584C12.9584 16.8501 12.9584 16.8417 12.9584 16.8417C12.425 15.6834 12 14.1751 12.0834 12.4001C12.1667 10.5417 12.775 9.03341 13.4167 7.94175C13.7084 7.44175 14 7.03341 14.25 6.71675C14.275 6.70008 14.2834 6.68341 14.2917 6.66675H14.25H13.6834C10.9167 6.78341 8.7417 9.05008 8.7417 11.8251C8.7417 13.0168 9.15837 14.1834 9.9167 15.1001L12.675 18.4668L12.7167 18.5084Z" fill="white"/>
<path d="M14.7083 17.4415C14.8083 17.5998 14.9083 17.7331 15 17.8581C15.0916 17.7331 15.1916 17.5998 15.2916 17.4415C15.9666 16.3915 16.7666 14.6665 16.675 12.4581C16.5833 10.4248 15.7666 8.8748 15.0833 7.91647C15.0583 7.8748 15.025 7.83314 15 7.7998C14.975 7.83314 14.9416 7.8748 14.9166 7.91647C14.2333 8.8748 13.4166 10.4248 13.325 12.4581C13.2333 14.6665 14.0333 16.3915 14.7083 17.4415Z" fill="white"/>
<path d="M16.3166 6.66675H15.7499H15.7083C15.7166 6.68341 15.7249 6.70008 15.7499 6.71675C15.9999 7.03341 16.2916 7.44175 16.5832 7.94175C17.2249 9.03341 17.8332 10.5417 17.9166 12.4001C17.9999 14.1751 17.5749 15.6834 17.0416 16.8417C17.0416 16.8417 17.0416 16.8501 17.0332 16.8584L16.7416 17.4417C16.5749 17.7501 16.4082 18.0168 16.2499 18.2584C16.1416 18.4168 16.0416 18.5667 15.9416 18.6917H16.8416C16.9666 18.6917 17.0916 18.6501 17.1916 18.5834C17.2249 18.5668 17.2499 18.5417 17.2832 18.5084L17.3249 18.4668L20.0833 15.1001C20.8416 14.1834 21.2583 13.0168 21.2583 11.8251C21.2583 9.05008 19.0832 6.78341 16.3166 6.66675Z" fill="white"/>
</svg>
