<svg width="30" height="30" viewBox="0 0 30 30" fill="none" xmlns="http://www.w3.org/2000/svg">
<circle cx="15" cy="15" r="15" fill="#047163"/>
<path d="M12.1907 7.68945C12.053 7.95966 12.053 8.31337 12.053 9.02081V12.0524L9.02142 12.0524C8.31398 12.0524 7.96027 12.0524 7.69006 12.1901C7.45238 12.3112 7.25915 12.5044 7.13804 12.7421C7.00037 13.0123 7.00037 13.366 7.00037 14.0734V15.9261C7.00037 16.6335 7.00037 16.9872 7.13804 17.2574C7.25915 17.4951 7.45238 17.6883 7.69006 17.8094C7.96027 17.9471 8.31398 17.9471 9.02142 17.9471H12.053V20.9787C12.053 21.6861 12.053 22.0399 12.1907 22.3101C12.3118 22.5477 12.505 22.741 12.7427 22.8621C13.0129 22.9998 13.3666 22.9998 14.0741 22.9998H15.9267C16.6341 22.9998 16.9878 22.9998 17.258 22.8621C17.4957 22.741 17.689 22.5477 17.8101 22.3101C17.9477 22.0399 17.9477 21.6861 17.9477 20.9787V17.9471H20.9793C21.6867 17.9471 22.0405 17.9471 22.3107 17.8094C22.5483 17.6883 22.7416 17.4951 22.8627 17.2574C23.0004 16.9872 23.0004 16.6335 23.0004 15.9261V14.0734C23.0004 13.366 23.0004 13.0123 22.8627 12.7421C22.7416 12.5044 22.5483 12.3112 22.3107 12.1901C22.0405 12.0524 21.6867 12.0524 20.9793 12.0524L17.9477 12.0524V9.02081C17.9477 8.31337 17.9477 7.95966 17.8101 7.68945C17.689 7.45177 17.4957 7.25854 17.258 7.13743C16.9878 6.99976 16.6341 6.99976 15.9267 6.99976H14.074C13.3666 6.99976 13.0129 6.99976 12.7427 7.13743C12.505 7.25854 12.3118 7.45177 12.1907 7.68945Z" fill="white"/>
</svg>
