<svg width="30" height="30" viewBox="0 0 30 30" fill="none" xmlns="http://www.w3.org/2000/svg">
<circle cx="15" cy="15" r="15" fill="#F0A0B5"/>
<path d="M22.7659 14.7003C22.4539 14.3888 21.9467 14.3888 21.6347 14.7003L18.3051 18.0299C17.8517 18.4837 17.2496 18.7333 16.608 18.7333H13.6667C13.5195 18.7333 13.4 18.6133 13.4 18.4667C13.4 18.32 13.5195 18.2 13.6667 18.2H16.6C17.1883 18.2 17.6667 17.7211 17.6667 17.1333C17.6667 16.5456 17.1883 16.0667 16.6 16.0667H12.2357C11.5488 16.0667 10.8837 16.2683 10.3125 16.6491L7.11894 18.7776C7.00214 18.8555 6.96587 19.0101 7.03521 19.1317L9.16854 22.8656C9.2064 22.9323 9.27094 22.9792 9.3456 22.9941C9.36374 22.9984 9.38187 23 9.4 23C9.45707 23 9.5136 22.9819 9.56 22.9467L11.1984 21.7179C11.4811 21.5051 11.8181 21.3781 12.1717 21.3499L17.2363 20.9509C18.0128 20.8901 18.7205 20.5312 19.2293 19.9408L22.7659 15.8309C22.9168 15.68 23 15.4789 23 15.2651C23 15.0512 22.9168 14.8507 22.7659 14.6992V14.7003Z" fill="white"/>
<path d="M12.3285 13.399H12.36C12.6789 13.399 12.9845 13.3067 13.272 13.1478C12.5835 12.2545 11.8651 11.5809 11.1333 11.1585C11.0059 11.0843 10.9621 10.9217 11.0357 10.7937C11.1093 10.6662 11.2715 10.623 11.4 10.6955C12.1979 11.1563 12.9739 11.8822 13.7104 12.8417C13.7115 12.8411 13.712 12.8406 13.7131 12.8395C14.3045 13.5761 14.8544 14.6027 14.9589 14.8032C14.9787 15.0806 14.9973 15.2592 15.0011 15.2939C15.016 15.431 15.1317 15.5318 15.2661 15.5318C15.2757 15.5318 15.2853 15.5312 15.2955 15.5302C15.4416 15.5142 15.5477 15.383 15.5317 15.2363C15.5307 15.2283 15.5147 15.0726 15.496 14.8171C15.6315 14.6518 15.9792 14.2374 16.4496 13.7563C16.4528 13.7531 16.4533 13.7483 16.4565 13.7451C17.1296 13.0566 18.1339 12.1563 19.0971 11.7798C19.2341 11.7259 19.3888 11.7931 19.4427 11.9313C19.4965 12.0683 19.4288 12.223 19.2912 12.2769C18.4629 12.6006 17.5771 13.3771 16.9445 14.0113C17.3168 14.304 17.7339 14.4651 18.1728 14.4651H18.2043C18.7893 14.455 19.3819 14.1659 19.9195 13.6289C21.0224 12.5254 21.1285 9.78992 21.1323 9.67419C21.1349 9.60005 21.1067 9.52859 21.0544 9.47632C21.0021 9.42352 20.9275 9.39739 20.8565 9.39845C20.7408 9.40272 18.0053 9.50885 16.9019 10.6118C15.9632 11.5505 15.9168 12.4747 16.2597 13.1857C15.9397 13.5019 15.664 13.8017 15.4533 14.0411C15.4197 13.1222 15.4288 11.8257 15.6464 10.7046C15.6485 10.7046 15.6512 10.7051 15.6533 10.7057C15.6544 10.6971 15.6517 10.6891 15.6533 10.6806C15.7947 9.96112 16.0059 9.40272 16.2816 9.02139C16.3675 8.90246 16.5339 8.87472 16.6539 8.96166C16.7733 9.04752 16.8 9.21499 16.7136 9.33392C16.4965 9.63419 16.3248 10.0907 16.2 10.6822C16.5669 10.5745 16.8955 10.2945 17.1499 9.84645C17.6725 8.92806 17.2064 7.26406 17.1867 7.19366C17.1467 7.05392 17 6.97179 16.8624 7.00912C16.7915 7.02779 15.1237 7.47686 14.6005 8.39579C14.3408 8.85232 14.2645 9.27952 14.3739 9.66565C14.4715 10.0113 14.7173 10.3041 15.0843 10.5121C15.1029 10.5227 15.1211 10.5259 15.1392 10.5355C14.9291 11.5649 14.8901 12.7158 14.9056 13.6289C14.6875 13.2774 14.4149 12.8689 14.0795 12.4395C14.6059 11.6998 14.7157 10.6321 13.6283 9.54459C12.5253 8.44166 9.78988 8.33552 9.67361 8.33126C9.59628 8.33019 9.52854 8.35739 9.47574 8.40912C9.42348 8.46139 9.39521 8.53286 9.39788 8.60699C9.40161 8.72272 9.50774 11.4582 10.6107 12.5617C11.1483 13.0993 11.7413 13.3883 12.3259 13.3985L12.3285 13.399Z" fill="white"/>
</svg>
