<svg width="30" height="30" viewBox="0 0 30 30" fill="none" xmlns="http://www.w3.org/2000/svg">
<circle cx="15" cy="15" r="15" fill="#1AA7E4"/>
<path d="M9.44631 18.5189C10.4944 18.5189 11.3459 17.6674 11.3459 16.6193C11.3459 15.5713 10.4944 14.7197 9.44631 14.7197C8.39828 14.7197 7.54675 15.5713 7.54675 16.6193C7.54675 17.6674 8.39828 18.5189 9.44631 18.5189Z" fill="white"/>
<path d="M13.1347 21.4868V22.3535C13.1347 22.5601 12.9684 22.7314 12.7568 22.7314H6.3779C6.17131 22.7314 6 22.5601 6 22.3535V21.4868C6 20.2725 6.98757 19.2849 8.20188 19.2849H10.9328C11.1797 19.2849 11.4165 19.3252 11.6382 19.4058C11.6382 19.4058 11.6382 19.4008 11.6433 19.4058C12.5099 19.6981 13.1347 20.5194 13.1347 21.4868Z" fill="white"/>
<path d="M13.1347 21.4868V22.3535C13.1347 22.5601 12.9684 22.7314 12.7568 22.7314H6.3779C6.17131 22.7314 6 22.5601 6 22.3535V21.4868C6 20.2725 6.98757 19.2849 8.20188 19.2849H10.9328C11.1797 19.2849 11.4165 19.3252 11.6382 19.4058C11.6382 19.4058 11.6382 19.4008 11.6433 19.4058C12.5099 19.6981 13.1347 20.5194 13.1347 21.4868Z" fill="white"/>
<path d="M16.0771 21.0532V21.7637C16.0771 21.9299 15.9411 22.066 15.7748 22.066H13.8904V21.4865C13.8904 20.9776 13.7593 20.4939 13.5326 20.0757C13.4369 19.9044 13.3311 19.7432 13.2101 19.597C13.1245 19.5013 13.0388 19.4056 12.9481 19.325H14.3489C14.4043 19.325 14.4547 19.3249 14.5051 19.335C14.5706 19.3401 14.6361 19.3501 14.7016 19.3653C15.0845 19.4459 15.4171 19.6575 15.6639 19.9397C15.7043 19.985 15.7446 20.0354 15.7798 20.0908C15.7849 20.0908 15.7849 20.0908 15.7798 20.0959C15.8756 20.237 15.9512 20.3881 16.0015 20.5544C16.0167 20.6098 16.0318 20.6652 16.0418 20.7207C16.067 20.8265 16.0771 20.9373 16.0771 21.0532Z" fill="white"/>
<path d="M13.2456 18.4482C14.0776 18.4482 14.7521 17.7737 14.7521 16.9416C14.7521 16.1096 14.0776 15.4351 13.2456 15.4351C12.4135 15.4351 11.739 16.1096 11.739 16.9416C11.739 17.7737 12.4135 18.4482 13.2456 18.4482Z" fill="white"/>
<path d="M19.5078 13.941C19.7362 13.3043 19.9123 12.5188 19.9079 11.6248C19.9029 10.2691 19.4843 9.16165 19.0837 8.41611C19.0258 8.30507 18.9688 8.20731 18.9177 8.11985C18.8303 8.17089 18.7355 8.23308 18.6275 8.29613C17.912 8.74815 17.0027 9.50635 16.3314 10.6843C15.8878 11.4604 15.6547 12.2309 15.5403 12.8977C15.5129 13.0516 15.4906 13.2025 15.4757 13.3423C15.4594 13.5035 15.4504 13.6536 15.4436 13.7955L16.8692 14.1704L15.6202 18.92C15.5581 19.1563 15.7022 19.4032 15.9384 19.4653C16.1747 19.5275 16.4216 19.3834 16.4837 19.1471L17.7328 14.3975L19.1585 14.7725C19.2223 14.6455 19.2883 14.5105 19.3535 14.3621C19.4062 14.2279 19.4559 14.0885 19.5078 13.941Z" fill="white"/>
<path d="M15.5634 10.2434C15.0799 11.1048 14.8164 11.9414 14.6849 12.6733C14.6493 12.8251 14.627 12.976 14.6202 13.1179C14.6009 13.274 14.5838 13.4219 14.5718 13.5668L11.8096 12.8145L11.3206 12.6634C11.1203 12.6015 11.0025 12.3958 11.0487 12.1928C11.0506 12.1843 11.0592 12.1684 11.0592 12.1684C11.9321 8.86592 15.171 6.81721 18.4704 7.35391C18.2852 7.46199 18.0824 7.58722 17.868 7.7399C17.6867 7.86641 17.501 8.00922 17.3111 8.16832C16.7002 8.66964 16.0769 9.35061 15.5634 10.2434Z" fill="white"/>
<path d="M19.7005 7.67702C22.8371 8.83287 24.6491 12.2099 23.7844 15.5145C23.776 15.5194 23.784 15.5331 23.7812 15.5425C23.7122 15.7732 23.4718 15.9089 23.2373 15.8466L22.8082 15.7325L20.0383 15.004C20.0992 14.872 20.157 14.7348 20.217 14.5894C20.2779 14.4573 20.3358 14.3201 20.3795 14.1705C20.6302 13.4656 20.8123 12.6076 20.81 11.6227C20.8021 10.5928 20.5893 9.69633 20.3092 8.95633C20.2221 8.72439 20.1307 8.50874 20.0351 8.30938C19.9236 8.07101 19.8056 7.85708 19.7005 7.67702Z" fill="white"/>
</svg>
