<svg width="30" height="30" viewBox="0 0 30 30" fill="none" xmlns="http://www.w3.org/2000/svg">
<circle cx="15" cy="15" r="15" fill="#9716FD"/>
<g clip-path="url(#clip0_25_2478)">
<path d="M14.2199 11.7731C14.0632 11.5905 13.8004 11.5799 13.6298 11.7474C13.6286 11.7487 13.6271 11.75 13.6259 11.7512C13.4675 11.9068 13.3737 12.1299 13.3693 12.3632L13.3049 16.3689C13.3028 16.5 13.2043 16.6045 13.0844 16.6045H13.0809C12.9592 16.6019 12.8622 16.493 12.864 16.3609L12.9284 12.3542C12.9355 11.9878 13.0823 11.6391 13.3307 11.3954C13.5206 11.2093 14.052 11.1045 14.2956 11.0817L14.5635 6.48882C14.5828 6.29885 14.481 6.10985 14.3154 6.03432C14.214 5.98803 14.1033 5.98867 14.0024 6.0356C13.9006 6.08285 13.822 6.17092 13.7823 6.28407L12.121 10.9486C11.5359 12.5992 11.2392 14.3333 11.2392 16.1034V18.1207C11.2392 18.3965 11.1544 18.669 11.0001 18.8873L9 21.7268L11.6712 23.9999L13.7757 21.8184C14.2855 21.0743 14.5656 20.1537 14.5653 19.2241L14.5626 13.1147C14.5638 12.3533 14.3869 11.9676 14.2199 11.7731Z" fill="white"/>
<path d="M18.5714 18.8876C18.4162 18.6674 18.3322 18.3977 18.3322 18.1203V16.103C18.3322 14.3332 18.0358 12.5988 17.4501 10.948L15.7895 6.28402C15.7491 6.17088 15.6708 6.08249 15.569 6.03524C15.4685 5.98831 15.3572 5.98799 15.256 6.03395C15.0908 6.10949 14.9887 6.29849 15.0086 6.49424L15.2762 11.0804C15.5195 11.1022 16.0509 11.2086 16.2411 11.3951C16.4894 11.6387 16.636 11.9878 16.6434 12.3529L16.7075 16.3605C16.7096 16.4929 16.6125 16.6019 16.4909 16.6041H16.487C16.3672 16.6041 16.2687 16.4997 16.2666 16.3685L16.2025 12.3619C16.1981 12.1295 16.1043 11.9065 15.9459 11.7509C15.9126 11.7184 15.8773 11.6895 15.8405 11.6647C15.6655 11.5471 15.4314 11.5985 15.3047 11.775C15.159 11.9781 15.0077 12.3687 15.0086 13.1137L15.0062 19.2234C15.0056 20.1527 15.286 21.0729 15.7954 21.8177L17.8999 23.9992L20.5715 21.7261L18.5714 18.8869V18.8876Z" fill="white"/>
</g>
<defs>
<clipPath id="clip0_25_2478">
<rect width="11.5714" height="18" fill="white" transform="translate(9 6)"/>
</clipPath>
</defs>
</svg>
