<svg width="30" height="30" viewBox="0 0 30 30" fill="none" xmlns="http://www.w3.org/2000/svg">
<circle cx="15" cy="15" r="15" fill="#FF6940"/>
<path d="M14.08 6.99976C13.744 6.99976 13.48 7.26376 13.48 7.59975V10.8797C13.48 11.6957 12.944 12.3837 12.216 12.6397V7.59975C12.216 7.26376 11.944 6.99976 11.616 6.99976C11.28 6.99976 11.016 7.26376 11.016 7.59975V12.6397C10.28 12.3837 9.752 11.6957 9.752 10.8797V7.59975C9.752 7.26376 9.48 6.99976 9.152 6.99976C8.816 6.99976 8.552 7.26376 8.552 7.59975V10.8797C8.552 12.3677 9.608 13.6077 11.016 13.8877V22.3837C11.016 22.7117 11.28 22.9837 11.616 22.9837C11.944 22.9837 12.216 22.7117 12.216 22.3837V13.8877C13.616 13.6077 14.68 12.3677 14.68 10.8797V7.59975C14.68 7.26376 14.408 6.99976 14.08 6.99976Z" fill="white"/>
<path d="M17.7044 7.01591L17.3364 7.02391C17.0084 7.03191 16.7524 7.29591 16.7524 7.62391L16.6884 17.4799L16.6644 21.7359C16.6644 22.0799 16.7924 22.3999 17.0404 22.6399C17.2804 22.8719 17.5924 22.9999 17.9204 22.9999H17.9604L18.8884 22.9679C19.5684 22.9439 20.1044 22.3999 20.1124 21.7119L20.1364 17.9999H20.1924C20.8724 17.9759 21.4084 17.4239 21.4164 16.7439L21.4484 10.6719C21.4564 9.66391 21.0724 8.73591 20.3604 8.03991C19.6484 7.34391 18.7124 6.99991 17.7044 7.01591ZM18.9124 21.7039C18.9124 21.7359 18.8884 21.7679 18.8564 21.7679L17.9204 21.7999L17.8644 21.7439L17.8884 18.0719L18.9364 18.0399L18.9124 21.7039Z" fill="white"/>
</svg>
