<svg width="26" height="25" viewBox="0 0 26 25" fill="none" xmlns="http://www.w3.org/2000/svg">
<path d="M7.63959 12.849L14.5625 9.38854M14.5625 18.4031L7.63959 14.9427M7.88959 13.8958C7.88959 15.1903 6.84026 16.2396 5.54584 16.2396C4.25142 16.2396 3.20209 15.1903 3.20209 13.8958C3.20209 12.6014 4.25142 11.5521 5.54584 11.5521C6.84026 11.5521 7.88959 12.6014 7.88959 13.8958ZM19 8.34375C19 9.63817 17.9507 10.6875 16.6563 10.6875C15.3618 10.6875 14.3125 9.63817 14.3125 8.34375C14.3125 7.04933 15.3618 6 16.6563 6C17.9507 6 19 7.04933 19 8.34375ZM19 19.45C19 20.7444 17.9507 21.7938 16.6563 21.7938C15.3618 21.7938 14.3125 20.7444 14.3125 19.45C14.3125 18.1556 15.3618 17.1063 16.6563 17.1063C17.9507 17.1063 19 18.1556 19 19.45Z" stroke="#047163" stroke-width="1.5" stroke-miterlimit="10" stroke-linecap="round" stroke-linejoin="round"/>
<path d="M19 2.98213L21.0095 4.99052L25 1" stroke="#047163" stroke-width="1.5" stroke-miterlimit="10"/>
</svg>
