<svg width="22" height="22" viewBox="0 0 22 22" fill="none" xmlns="http://www.w3.org/2000/svg">
<path d="M6.84624 9.74243L15.1537 5.58993M15.1537 16.4074L6.84624 12.2549M7.14624 10.9987C7.14624 12.552 5.88704 13.8112 4.33374 13.8112C2.78044 13.8112 1.52124 12.552 1.52124 10.9987C1.52124 9.44538 2.78044 8.18618 4.33374 8.18618C5.88704 8.18618 7.14624 9.44538 7.14624 10.9987ZM20.4787 4.33618C20.4787 5.88948 19.2195 7.14868 17.6662 7.14868C16.1129 7.14868 14.8537 5.88948 14.8537 4.33618C14.8537 2.78288 16.1129 1.52368 17.6662 1.52368C19.2195 1.52368 20.4787 2.78288 20.4787 4.33618ZM20.4787 17.6637C20.4787 19.217 19.2195 20.4762 17.6662 20.4762C16.1129 20.4762 14.8537 19.217 14.8537 17.6637C14.8537 16.1104 16.1129 14.8512 17.6662 14.8512C19.2195 14.8512 20.4787 16.1104 20.4787 17.6637Z" stroke="#101010" stroke-width="1.5" stroke-miterlimit="10" stroke-linecap="round" stroke-linejoin="round"/>
</svg>
