<svg width="32" height="40" viewBox="0 0 32 40" fill="none" xmlns="http://www.w3.org/2000/svg">
  <path d="M27.0353 4.57339C24.0972 1.624 20.1697 0 15.9762 0C11.5029 0 7.24609 1.90708 4.2971 5.23256C1.26982 8.5988 -0.831754 14.0719 1.27709 18.7348C2.55305 21.5559 5.45341 23.5689 8.57329 23.5689C12.3866 23.5689 15.4381 21.7508 18.2314 18.3878L20.5373 20.4129L21.8276 10.9786L12.8095 13.627L15.2539 15.7735C13.1804 18.3474 10.8082 19.7063 8.5515 19.5572C6.94465 19.4511 5.59505 18.524 4.94113 17.0781C3.58709 14.0846 5.22239 10.2174 7.30561 7.90069C9.49193 5.43533 12.652 4.02137 15.9762 4.02137C22.3611 4.02137 27.5555 9.21741 27.5555 15.6045C27.5555 20.793 24.8343 24.2579 21.5457 27.9325L15.9762 34.035L10.4065 27.9323C9.73646 27.1837 9.09062 26.4434 8.48593 25.6959C6.64301 25.8317 4.72726 25.707 3.31329 25.4019C4.63082 27.5084 6.16604 29.2242 7.41658 30.621L15.9762 40L24.5228 30.6353L24.5357 30.621C27.3392 27.4886 31.5763 22.7552 31.5763 15.6043C31.5763 11.4304 29.9635 7.5129 27.0353 4.57339Z" fill="#047163"/>
</svg>
