<svg width="30" height="30" viewBox="0 0 30 30" fill="none" xmlns="http://www.w3.org/2000/svg">
<circle cx="15" cy="15" r="15" fill="#A3D70E"/>
<path d="M6.96663 13.4473H8.49982V15.4471H6.96663C6.69065 15.4471 6.46667 15.2234 6.46667 14.9471V13.9472C6.46667 13.6711 6.69048 13.4473 6.96663 13.4473Z" fill="white"/>
<path d="M23.0319 13.4473C23.3081 13.4473 23.5319 13.6711 23.5319 13.9472V14.9471C23.5319 15.2234 23.308 15.4471 23.0319 15.4471H15.4993V13.4473H23.0319Z" fill="white"/>
<path d="M12.2024 12.2951C12.0152 12.1547 11.9772 11.8891 12.1177 11.7019C12.5668 11.103 12.5668 10.2666 12.1177 9.66779C11.785 9.22424 11.6091 8.69669 11.6091 8.14223C11.6091 7.58777 11.785 7.06022 12.1177 6.61666C12.2581 6.42943 12.5237 6.3915 12.7109 6.53193C12.8982 6.67231 12.9361 6.93797 12.7957 7.1252C12.3465 7.72402 12.3465 8.56048 12.7957 9.1593C13.1284 9.60286 13.3042 10.1304 13.3042 10.6849C13.3042 11.2393 13.1284 11.7669 12.7957 12.2104C12.6547 12.3984 12.3889 12.4351 12.2024 12.2952L12.2024 12.2951Z" fill="white"/>
<path d="M14.7452 12.2951C14.5579 12.1547 14.52 11.8891 14.6604 11.7019C15.1095 11.103 15.1095 10.2666 14.6604 9.66779C14.3277 9.22423 14.1519 8.69669 14.1519 8.14223C14.1519 7.58777 14.3277 7.06022 14.6604 6.61666C14.8008 6.42943 15.0664 6.3915 15.2537 6.53193C15.4409 6.67231 15.4789 6.93797 15.3384 7.1252C14.8893 7.72402 14.8893 8.56048 15.3384 9.1593C15.6711 9.60286 15.847 10.1304 15.847 10.6849C15.847 11.2393 15.6711 11.7669 15.3384 12.2104C15.1974 12.3984 14.9317 12.435 14.7452 12.2951Z" fill="white"/>
<path d="M17.2878 12.2951C17.1005 12.1547 17.0626 11.8891 17.203 11.7019C17.6521 11.103 17.6521 10.2666 17.203 9.66779C16.8703 9.22423 16.6945 8.69669 16.6945 8.14223C16.6945 7.58777 16.8703 7.06022 17.203 6.61666C17.3434 6.42943 17.609 6.3915 17.7963 6.53193C17.9835 6.67231 18.0215 6.93797 17.881 7.1252C17.4319 7.72402 17.4319 8.56048 17.881 9.1593C18.2137 9.60286 18.3896 10.1304 18.3896 10.6849C18.3896 11.2393 18.2137 11.7669 17.881 12.2104C17.7402 12.3982 17.4745 12.4352 17.2878 12.2952V12.2951Z" fill="white"/>
<path d="M13.9995 13.4473H9.99983C9.72374 13.4473 9.49988 13.6711 9.49988 13.9472V17.9469C9.49988 18.223 9.72369 18.4468 9.99983 18.4468H13.9995C14.2756 18.4468 14.4994 18.223 14.4994 17.9469V13.9472C14.4994 13.6711 14.2756 13.4473 13.9995 13.4473Z" fill="white"/>
<path d="M23.5319 21.9467C23.5319 21.6705 23.3081 21.4467 23.0319 21.4467H22.4986V16.4471H21.4987V21.4467H20.4988V16.4471H19.4989V21.4467H18.499V16.4471H17.4991V21.4467H16.4992V16.4471H15.4993V21.4467H14.4993V19.3609C14.343 19.4165 14.1747 19.4469 13.9994 19.4469H13.4994V21.4467H12.4995V19.4469H11.4996V21.4467H10.4997V19.4469H9.99969C9.82442 19.4469 9.65609 19.4165 9.49973 19.3609V21.4467H8.49982V16.4471H7.49991V21.4467H6.96663C6.69054 21.4467 6.46667 21.6705 6.46667 21.9467C6.46667 22.2228 6.69049 22.4466 6.96658 22.4466H23.032C23.3081 22.4466 23.5319 22.2228 23.5319 21.9467Z" fill="white"/>
</svg>
