<svg width="24" height="24" viewBox="0 0 24 24" fill="none" xmlns="http://www.w3.org/2000/svg">
<path d="M6.03854 13.452L12.9615 9.99157M12.9615 19.0062L6.03854 15.5457M6.28854 14.4989C6.28854 15.7933 5.23921 16.8426 3.94479 16.8426C2.65038 16.8426 1.60104 15.7933 1.60104 14.4989C1.60104 13.2044 2.65038 12.1551 3.94479 12.1551C5.23921 12.1551 6.28854 13.2044 6.28854 14.4989ZM17.399 8.94678C17.399 10.2412 16.3496 11.2905 15.0552 11.2905C13.7608 11.2905 12.7115 10.2412 12.7115 8.94678C12.7115 7.65236 13.7608 6.60303 15.0552 6.60303C16.3496 6.60303 17.399 7.65236 17.399 8.94678ZM17.399 20.053C17.399 21.3474 16.3496 22.3968 15.0552 22.3968C13.7608 22.3968 12.7115 21.3474 12.7115 20.053C12.7115 18.7586 13.7608 17.7093 15.0552 17.7093C16.3496 17.7093 17.399 18.7586 17.399 20.053Z" stroke="#101010" stroke-opacity="0.6" stroke-width="1.5" stroke-miterlimit="10" stroke-linecap="round" stroke-linejoin="round"/>
<path opacity="0.6" d="M20.399 0.603027V3.60303M20.399 3.60303L20.399 6.60303M20.399 3.60303H23.399M20.399 3.60303L17.399 3.60303" stroke="#101010" stroke-width="1.5"/>
</svg>
