<svg width="30" height="30" viewBox="0 0 30 30" fill="none" xmlns="http://www.w3.org/2000/svg">
<circle cx="15" cy="15" r="15" fill="#101010"/>
<path d="M15.0083 17.7083C16.3083 17.7083 17.375 16.6833 17.375 15.4167C17.375 14.15 16.3083 13.125 15.0083 13.125C13.7 13.125 12.6333 14.15 12.6333 15.4167C12.6333 16.6833 13.7 17.7083 15.0083 17.7083Z" fill="white"/>
<path d="M21.0001 10.2084H19.05C18.775 10.2084 18.5334 10.0417 18.4501 9.80008C18.1917 9.05008 17.475 8.54175 16.6667 8.54175H13.3417C12.5334 8.54175 11.8167 9.05008 11.5584 9.80008C11.475 10.0417 11.2334 10.2084 10.9584 10.2084H10.4917V10.0001C10.4917 9.65841 10.2084 9.37508 9.8667 9.37508C9.5167 9.37508 9.2417 9.65841 9.2417 10.0001V10.2084H9.00837C7.71671 10.2084 6.67505 11.2334 6.67505 12.5001V19.1667C6.67505 20.4334 7.71671 21.4584 9.00837 21.4584H21.0001C22.2917 21.4584 23.3417 20.4334 23.3417 19.1667V12.5001C23.3417 11.2334 22.2917 10.2084 21.0001 10.2084ZM15.0084 11.8751C17 11.8751 18.625 13.4667 18.625 15.4167C18.625 17.3667 17 18.9584 15.0084 18.9584C13.0084 18.9584 11.3834 17.3667 11.3834 15.4167C11.3834 13.4667 13.0084 11.8751 15.0084 11.8751Z" fill="white"/>
</svg>
