<svg width="30" height="30" viewBox="0 0 30 30" fill="none" xmlns="http://www.w3.org/2000/svg">
<circle cx="15" cy="15" r="15" fill="#7E7F80"/>
<path d="M13.8584 18.9C13.8584 19.2333 14.1667 19.5083 14.5501 19.5083C14.9251 19.5083 15.2334 19.2333 15.2334 18.9C15.2334 18.6083 14.9251 18.0833 14.5501 17.6C14.1667 18.0833 13.8584 18.6083 13.8584 18.9Z" fill="white"/>
<path d="M16.3833 10.4834H12.7083C12.5666 10.4834 12.45 10.6001 12.45 10.7417V13.2584C12.45 13.4001 12.5666 13.5167 12.7083 13.5167H16.3833C16.525 13.5167 16.6416 13.4001 16.6416 13.2584V10.7417C16.6416 10.6001 16.525 10.4834 16.3833 10.4834Z" fill="white"/>
<path d="M20.392 9.808V9.288C20.392 8.024 19.36 7 18.096 7H11.032C9.76799 7 8.74399 8.024 8.74399 9.288V21.8H7.6C7.272 21.8 7 22.064 7 22.4C7 22.728 7.272 23 7.6 23H21.528C21.864 23 22.128 22.728 22.128 22.4C22.128 22.064 21.864 21.8 21.528 21.8H20.392V18.888H21.528C22.344 18.888 23 18.248 23 17.464V12.872C23 12.488 22.84 12.12 22.56 11.856L20.392 9.808ZM14.568 20.528C13.536 20.528 12.704 19.728 12.704 18.744C12.704 17.76 13.728 16.6 14.048 16.264C14.312 15.984 14.816 15.984 15.08 16.264C15.4 16.6 16.424 17.76 16.424 18.744C16.424 19.728 15.592 20.528 14.568 20.528ZM17.776 13.328C17.776 14.128 17.128 14.776 16.328 14.776H12.8C12 14.776 11.352 14.128 11.352 13.328V10.912C11.352 10.112 12 9.464 12.8 9.464H16.328C17.128 9.464 17.776 10.112 17.776 10.912V13.328ZM21.8 17.464C21.8 17.584 21.68 17.688 21.528 17.688H20.392V15.6H21.8V17.464ZM21.8 14.4H20.392V11.456L21.736 12.728C21.776 12.768 21.8 12.816 21.8 12.872V14.4Z" fill="white"/>
</svg>
