<svg width="30" height="30" viewBox="0 0 30 30" fill="none" xmlns="http://www.w3.org/2000/svg">
<circle cx="15" cy="15" r="15" fill="#BC4D4D"/>
<path d="M13.3584 17.9918C13.2917 17.9251 13.2167 17.8751 13.1334 17.8335C13.0417 17.8001 12.9501 17.7751 12.8501 17.7751C12.7501 17.7751 12.6584 17.8001 12.5667 17.8335C12.4834 17.8751 12.4084 17.9251 12.3417 17.9918C12.2834 18.0585 12.2334 18.1335 12.1917 18.2168C12.1584 18.3085 12.1417 18.4001 12.1417 18.4918C12.1417 18.6001 12.1584 18.6918 12.1917 18.7751C12.2334 18.8668 12.2834 18.9418 12.3417 19.0001C12.4084 19.0668 12.4834 19.1168 12.5667 19.1501C12.6584 19.1918 12.7501 19.2085 12.8501 19.2085C12.9501 19.2085 13.0417 19.1918 13.1334 19.1501C13.2167 19.1168 13.2917 19.0668 13.3584 19.0001C13.425 18.9418 13.475 18.8668 13.5084 18.7751C13.55 18.6918 13.5667 18.6001 13.5667 18.4918C13.5667 18.4001 13.55 18.3085 13.5084 18.2168C13.475 18.1335 13.425 18.0585 13.3584 17.9918Z" fill="white"/>
<path d="M21.3584 14.4832L16.8167 9.93316C16.8667 9.74983 16.9084 9.55816 16.9084 9.35816C16.9084 8.30816 16.0501 7.44983 15.0001 7.44983C13.9501 7.44983 13.0917 8.30816 13.0917 9.35816C13.0917 9.5415 13.1251 9.71649 13.1667 9.87483L8.56675 14.4832C8.55841 14.4832 8.55841 14.4915 8.55841 14.4915C7.48341 14.6998 6.66675 15.6415 6.66675 16.7832V20.2082C6.66675 21.4998 7.71675 22.5498 9.00841 22.5498H20.9917C22.2834 22.5498 23.3334 21.4998 23.3334 20.2082V16.7832C23.3334 15.6165 22.4751 14.6582 21.3584 14.4832ZM15.0001 8.69983C15.3667 8.69983 15.6584 8.99983 15.6584 9.35816C15.6584 9.72483 15.3667 10.0248 15.0001 10.0248C14.6334 10.0248 14.3417 9.72483 14.3417 9.35816C14.3417 8.99983 14.6334 8.69983 15.0001 8.69983ZM11.0417 19.5748C11.0417 19.6248 11.0334 19.6748 11.0167 19.7165C10.9917 19.7665 10.9667 19.8082 10.9334 19.8415C10.9001 19.8748 10.8584 19.8998 10.8084 19.9248C10.7667 19.9415 10.7168 19.9498 10.6584 19.9498C10.6084 19.9498 10.5584 19.9415 10.5084 19.9248C10.4667 19.8998 10.4251 19.8748 10.3917 19.8415C10.3584 19.8082 10.3251 19.7665 10.3084 19.7165C10.2917 19.6748 10.2751 19.6248 10.2751 19.5748V18.8748H9.10009V19.5748C9.10009 19.6248 9.09176 19.6748 9.07509 19.7165C9.05009 19.7665 9.02509 19.8082 8.99176 19.8415C8.95842 19.8748 8.91676 19.8998 8.86676 19.9248C8.81676 19.9415 8.76674 19.9498 8.71674 19.9498C8.66674 19.9498 8.61675 19.9415 8.56675 19.9248C8.51675 19.8998 8.48342 19.8748 8.44175 19.8415C8.40842 19.8082 8.38342 19.7665 8.36676 19.7165C8.34176 19.6748 8.33341 19.6248 8.33341 19.5748V17.4082C8.33341 17.3582 8.34176 17.3082 8.36676 17.2582C8.38342 17.2165 8.40842 17.1748 8.44175 17.1415C8.48342 17.1082 8.51675 17.0748 8.56675 17.0582C8.61675 17.0415 8.66674 17.0332 8.71674 17.0332C8.76674 17.0332 8.81676 17.0415 8.86676 17.0582C8.91676 17.0748 8.95842 17.1082 8.99176 17.1415C9.02509 17.1748 9.05009 17.2165 9.07509 17.2582C9.09176 17.3082 9.10009 17.3582 9.10009 17.4082V18.1082H10.2751V17.4082C10.2751 17.3582 10.2917 17.3082 10.3084 17.2582C10.3334 17.2165 10.3584 17.1748 10.3917 17.1415C10.4251 17.1082 10.4667 17.0748 10.5167 17.0582C10.5667 17.0415 10.6167 17.0332 10.6667 17.0332C10.7251 17.0332 10.7751 17.0415 10.8168 17.0582C10.8584 17.0748 10.9001 17.1082 10.9334 17.1415C10.9667 17.1748 11.0001 17.2165 11.0167 17.2582C11.0334 17.3082 11.0417 17.3582 11.0417 17.4082V19.5748ZM14.2167 19.0748C14.1334 19.2498 14.0334 19.4082 13.8918 19.5415C13.7584 19.6748 13.6001 19.7832 13.4251 19.8582C13.2417 19.9415 13.0501 19.9748 12.8418 19.9748C12.6418 19.9748 12.4501 19.9415 12.2667 19.8582C12.0917 19.7832 11.9334 19.6748 11.8001 19.5415C11.6668 19.4082 11.5584 19.2498 11.4834 19.0748C11.4084 18.8915 11.3668 18.6998 11.3668 18.4915C11.3668 18.2915 11.4084 18.0998 11.4834 17.9165C11.5584 17.7415 11.6668 17.5832 11.8001 17.4498C11.9334 17.3165 12.0917 17.2082 12.2667 17.1248C12.4501 17.0498 12.6418 17.0165 12.8418 17.0165C13.0501 17.0165 13.2417 17.0498 13.4251 17.1248C13.6001 17.2082 13.7584 17.3165 13.8918 17.4498C14.0334 17.5832 14.1334 17.7415 14.2167 17.9165C14.2917 18.0998 14.3334 18.2915 14.3334 18.4915C14.3334 18.6998 14.2917 18.8915 14.2167 19.0748ZM16.7834 17.5665C16.7668 17.6082 16.7334 17.6498 16.7001 17.6915C16.6668 17.7248 16.6251 17.7498 16.5834 17.7665C16.5334 17.7915 16.4834 17.7998 16.4334 17.7998H15.9751V19.5748C15.9751 19.6248 15.9668 19.6748 15.9501 19.7248C15.9251 19.7665 15.9001 19.8082 15.8668 19.8415C15.8251 19.8748 15.7918 19.8998 15.7418 19.9248C15.6918 19.9415 15.6417 19.9498 15.5917 19.9498C15.5417 19.9498 15.4917 19.9415 15.4417 19.9248C15.4001 19.8998 15.3584 19.8748 15.3251 19.8415C15.2918 19.8082 15.2584 19.7665 15.2418 19.7248C15.2168 19.6748 15.2084 19.6248 15.2084 19.5748V17.7998H14.7584C14.7084 17.7998 14.6584 17.7915 14.6084 17.7665C14.5667 17.7498 14.5251 17.7165 14.4918 17.6832C14.4501 17.6498 14.4251 17.6082 14.4084 17.5582C14.3834 17.5165 14.3751 17.4665 14.3751 17.4082C14.3751 17.3582 14.3834 17.3082 14.4084 17.2582C14.4251 17.2165 14.4501 17.1748 14.4918 17.1415C14.5251 17.1082 14.5667 17.0832 14.6084 17.0582C14.6584 17.0415 14.7084 17.0332 14.7584 17.0332H16.4334C16.4834 17.0332 16.5334 17.0415 16.5834 17.0582C16.6251 17.0832 16.6668 17.1082 16.7001 17.1415C16.7334 17.1832 16.7668 17.2248 16.7834 17.2665C16.8084 17.3165 16.8167 17.3665 16.8167 17.4165C16.8167 17.4748 16.8084 17.5248 16.7834 17.5665ZM18.7251 18.0582C18.7834 18.0582 18.8334 18.0665 18.8751 18.0915C18.9251 18.1082 18.9667 18.1415 19.0001 18.1748C19.0334 18.2082 19.0584 18.2498 19.0834 18.2998C19.1001 18.3498 19.1084 18.3998 19.1084 18.4498C19.1084 18.5082 19.1001 18.5498 19.0834 18.5998C19.0584 18.6415 19.0334 18.6832 19.0001 18.7165C18.9667 18.7498 18.9251 18.7748 18.8751 18.7998C18.8334 18.8165 18.7834 18.8248 18.7251 18.8248H17.8667V19.1832H18.9084C18.9584 19.1832 19.0084 19.1915 19.0584 19.2165C19.1001 19.2332 19.1418 19.2665 19.1751 19.2998C19.2084 19.3332 19.2417 19.3748 19.2584 19.4248C19.2751 19.4665 19.2834 19.5165 19.2834 19.5748C19.2834 19.6248 19.2751 19.6748 19.2584 19.7248C19.2417 19.7665 19.2084 19.8082 19.1751 19.8415C19.1418 19.8748 19.1001 19.8998 19.0584 19.9248C19.0084 19.9415 18.9584 19.9498 18.9084 19.9498H17.4584C17.4084 19.9415 17.3584 19.9332 17.3167 19.9082C17.2751 19.8915 17.2334 19.8665 17.2084 19.8332C17.1751 19.7998 17.1501 19.7582 17.1334 19.7165C17.1084 19.6748 17.1001 19.6248 17.1001 19.5748V17.4165C17.1001 17.3665 17.1084 17.3165 17.1334 17.2665C17.1501 17.2165 17.1751 17.1748 17.2168 17.1415C17.2501 17.1082 17.2834 17.0832 17.3334 17.0582C17.3834 17.0415 17.4334 17.0332 17.4834 17.0332H18.9084C18.9584 17.0332 19.0084 17.0415 19.0584 17.0582C19.1001 17.0832 19.1418 17.1082 19.1751 17.1415C19.2084 17.1748 19.2417 17.2165 19.2584 17.2665C19.2751 17.3165 19.2834 17.3665 19.2834 17.4165C19.2834 17.4665 19.2751 17.5165 19.2584 17.5665C19.2417 17.6082 19.2084 17.6498 19.1751 17.6915C19.1418 17.7248 19.1001 17.7498 19.0584 17.7665C19.0084 17.7915 18.9584 17.7998 18.9084 17.7998H17.8667V18.0582H18.7251ZM10.3751 14.4415L13.9001 10.9165C14.2084 11.1415 14.5917 11.2748 15.0001 11.2748C15.3917 11.2748 15.7584 11.1498 16.0584 10.9498L19.5584 14.4415H10.3751ZM21.6334 19.7248C21.6167 19.7748 21.5917 19.8082 21.5584 19.8415C21.5251 19.8748 21.4834 19.8998 21.4334 19.9248C21.3917 19.9415 21.3418 19.9498 21.2834 19.9498H19.9834C19.9251 19.9415 19.8751 19.9332 19.8251 19.9082C19.7751 19.8832 19.7334 19.8582 19.7001 19.8248C19.6584 19.7832 19.6334 19.7415 19.6168 19.6915C19.5918 19.6332 19.5834 19.5748 19.5834 19.5082V17.4082C19.5834 17.3498 19.5918 17.3082 19.6168 17.2582C19.6334 17.2165 19.6584 17.1748 19.7001 17.1415C19.7334 17.1082 19.7751 17.0748 19.8167 17.0582C19.8667 17.0415 19.9167 17.0332 19.9667 17.0332C20.0167 17.0332 20.0751 17.0415 20.1168 17.0582C20.1668 17.0748 20.2084 17.1082 20.2418 17.1415C20.2751 17.1748 20.3001 17.2165 20.3251 17.2582C20.3418 17.3082 20.3501 17.3498 20.3501 17.4082V19.1832H21.2834C21.3418 19.1832 21.3917 19.1998 21.4334 19.2165C21.4834 19.2415 21.5251 19.2665 21.5584 19.2998C21.5917 19.3332 21.6167 19.3748 21.6334 19.4248C21.6584 19.4748 21.6667 19.5248 21.6667 19.5748C21.6667 19.6248 21.6584 19.6748 21.6334 19.7248Z" fill="white"/>
</svg>
