<svg width="30" height="30" viewBox="0 0 30 30" fill="none" xmlns="http://www.w3.org/2000/svg">
<circle cx="15" cy="15" r="15" fill="#03D2B9"/>
<path d="M19.4336 14.5262C19.662 13.8895 19.8381 13.104 19.8336 12.21C19.8287 10.8543 19.4101 9.74686 19.0095 9.00131C18.9516 8.89027 18.8945 8.79252 18.8435 8.70506C18.756 8.7561 18.6613 8.81829 18.5533 8.88133C17.8377 9.33336 16.9285 10.0916 16.2572 11.2695C15.8136 12.0456 15.5805 12.8161 15.4661 13.4829C15.4387 13.6368 15.4164 13.7877 15.4014 13.9275C15.3852 14.0887 15.3762 14.2388 15.3693 14.3807L16.795 14.7556L15.546 19.5052C15.4838 19.7415 15.6279 19.9884 15.8642 20.0505C16.1005 20.1127 16.3474 19.9686 16.4095 19.7323L17.6586 14.9827L19.0843 15.3577C19.1481 15.2307 19.2141 15.0957 19.2793 14.9473C19.332 14.8131 19.3817 14.6737 19.4336 14.5262Z" fill="white"/>
<path d="M15.4892 10.8286C15.0057 11.69 14.7422 12.5266 14.6107 13.2585C14.5751 13.4103 14.5528 13.5612 14.546 13.7031C14.5267 13.8592 14.5096 14.0071 14.4976 14.1521L11.7354 13.3997L11.2464 13.2486C11.0461 13.1867 10.9283 12.981 10.9745 12.778C10.9764 12.7695 10.985 12.7536 10.985 12.7536C11.8578 9.45113 15.0968 7.40242 18.3961 7.93912C18.2109 8.04719 18.0081 8.17243 17.7938 8.3251C17.6125 8.45161 17.4268 8.59442 17.2369 8.75352C16.626 9.25484 16.0027 9.93581 15.4892 10.8286Z" fill="white"/>
<path d="M19.6263 8.26222C22.7629 9.41808 24.5749 12.7951 23.7102 16.0997C23.7018 16.1046 23.7098 16.1184 23.707 16.1277C23.638 16.3584 23.3976 16.4941 23.1631 16.4318L22.734 16.3177L19.9641 15.5892C20.025 15.4572 20.0828 15.32 20.1428 15.1746C20.2037 15.0425 20.2615 14.9053 20.3052 14.7557C20.556 14.0508 20.738 13.1928 20.7357 12.2079C20.7279 11.178 20.515 10.2815 20.235 9.54154C20.1479 9.30959 20.0565 9.09394 19.9609 8.89459C19.8494 8.65621 19.7314 8.44228 19.6263 8.26222Z" fill="white"/>
<path d="M9.26 19.9954L7.82631 22.1459M9.26 19.9954L6.0741 16.6499M9.26 19.9954L21.9791 19.9952M19.6144 19.9954L21.0481 22.1459M7.42816 18.0835H11.0028C11.4731 18.0835 11.9293 18.2436 12.2965 18.5373L14.1187 19.9951" stroke="white" stroke-width="1.2" stroke-linecap="round"/>
</svg>
