<svg width="30" height="30" viewBox="0 0 30 30" fill="none" xmlns="http://www.w3.org/2000/svg">
<circle cx="15" cy="15" r="15" fill="#1A5BE4"/>
<path fillRule="evenodd" clipRule="evenodd" d="M19.1085 10.8332C19.135 10.7742 19.1473 10.7099 19.1447 10.6454H19.1665C19.0733 8.42167 17.2373 6.66675 15.004 6.66675C12.7707 6.66675 10.9346 8.42167 10.8414 10.6454C10.8304 10.7075 10.8304 10.7711 10.8414 10.8332H10.7768C9.70888 10.8332 8.56732 11.5382 8.2359 13.4333L7.58779 18.5955C7.05751 22.3857 9.00921 23.3332 11.5575 23.3332H18.4658C21.0067 23.3332 22.8994 21.9612 22.4281 18.5955L21.7873 13.4333C21.397 11.5912 20.2923 10.8332 19.2391 10.8332H19.1085ZM17.9108 10.8332C17.8876 10.7732 17.8754 10.7096 17.8746 10.6454C17.8746 9.04744 16.5747 7.75207 14.9713 7.75207C13.3679 7.75207 12.068 9.04744 12.068 10.6454C12.079 10.7075 12.079 10.7711 12.0681 10.8332H17.9108ZM12.5806 15.1233C12.1739 15.1233 11.8441 14.7839 11.8441 14.3653C11.8441 13.9466 12.1739 13.6072 12.5806 13.6072C12.9874 13.6072 13.3171 13.9466 13.3171 14.3653C13.3171 14.7839 12.9874 15.1233 12.5806 15.1233ZM16.6691 14.3653C16.6691 14.7839 16.9988 15.1233 17.4056 15.1233C17.8123 15.1233 18.1421 14.7839 18.1421 14.3653C18.1421 13.9466 17.8123 13.6072 17.4056 13.6072C16.9988 13.6072 16.6691 13.9466 16.6691 14.3653Z" fill="white"/>
</svg>
